# xmcd CD database file generated by OrangeCD 5.2
#
# Track frame offsets:
#	150
#	18782
#	34900
#	51555
#	72423
#	88683
#	107899
#	126152
#	144624
#	168662
#	195040
#	213637
#	230182
#
# Disc length: 3183 seconds
#
# Revision: 0
# Processed by: cddbd v1.5.1PL0 Copyright (c) Steve Scherf et al.
# Submitted via: OrangeCD 5.2
#
DISCID=c20c6d0d
DTITLE=Little T And The Swamp Kings - Oh Babe!
DYEAR=2005
DGENRE=Blues
TTITLE0=Oh! Vampira
TTITLE1=Babeface
TTITLE2=Blow My Mind
TTITLE3=Still Around
TTITLE4=Little Sister
TTITLE5=Tell The Truth
TTITLE6=Dirty Daisy
TTITLE7=Big Fat Mama
TTITLE8=Jenny! Jenny!
TTITLE9=Just For Me
TTITLE10=Wiggle Wiggle
TTITLE11=She's Cool
TTITLE12=Swing The House Tonite (Bonus Track)
EXTD=
EXTT0=
EXTT1=
EXTT2=
EXTT3=
EXTT4=
EXTT5=
EXTT6=
EXTT7=
EXTT8=
EXTT9=
EXTT10=
EXTT11=
EXTT12=
PLAYORDER=
